<svg id="Layer_1" data-name="Layer 1" xmlns="http://www.w3.org/2000/svg" viewBox="0 0 105.5 53.93"><title>logo</title><path d="M37.11,43.11a.57.57,0,0,1,.53,1s-1.87,2.51-4,2.94a5.8,5.8,0,0,1-3.76-.78,12.59,12.59,0,0,1-2.93-2,36.52,36.52,0,0,1-2.67-2.72,34.14,34.14,0,0,0-2.93-2.91,12.87,12.87,0,0,0-1.35-1l-1.49-1q-.76-.5-1.42-1A5.72,5.72,0,0,1,16,34.45q-.52-.66-1-1.32a7.59,7.59,0,0,0-1-1.18,4.85,4.85,0,0,0-1.23-.83,3.56,3.56,0,0,0-1.51-.31,5,5,0,0,0-1.75.28,4.32,4.32,0,0,0-1.35.8A8.59,8.59,0,0,0,7,33.13l-.41.55a1.49,1.49,0,0,0,.05,1.83h0a5.52,5.52,0,0,0,.66.69,2.61,2.61,0,0,0,.76.45,3,3,0,0,0,1.09.17,4.09,4.09,0,0,0,1.3-.21,9.63,9.63,0,0,0,1.25-.52l1.2-.59c.39-.19,1-.54,1.25-.43s-.65.65-1,1A10.68,10.68,0,0,1,12,37a6.91,6.91,0,0,1-1.23.71A3.28,3.28,0,0,1,9.41,38a5.79,5.79,0,0,1-2.08-.38,5.21,5.21,0,0,1-1.72-1.06,5,5,0,0,1-1.16-1.63,4.89,4.89,0,0,1-.43-2,2.34,2.34,0,0,1,1-2.08,7.77,7.77,0,0,1,2.36-1q1.39-.38,2.93-.76A7.78,7.78,0,0,0,13,27.83a4.21,4.21,0,0,0,1.68-2.13,9,9,0,0,0,.43-2.65q0-1.42,0-2.93a11.43,11.43,0,0,1,.33-3.07q.71-2.74,1.65-5.43A21.46,21.46,0,0,1,19.38,6.8a12.12,12.12,0,0,1,3.43-3.45A8.61,8.61,0,0,1,27.65,2a4.87,4.87,0,0,1,2,.4,5.29,5.29,0,0,1,2.74,2.74,4.86,4.86,0,0,1,.4,2,2,2,0,0,1-.28,1,9.12,9.12,0,0,1-.66,1q-.38.5-.78,1h0a2,2,0,0,1-1.87.7l-.91-.14A2.21,2.21,0,0,1,26.43,9h0q-.06-.27-.12-.58A.55.55,0,0,1,27,7.75L27.7,8h0a2.22,2.22,0,0,0,2.36-.38l.25-.22A1.78,1.78,0,0,0,31,6a2.19,2.19,0,0,0-.35-1.3,5.75,5.75,0,0,0-1-1,2.5,2.5,0,0,0-1.16-.5,5.62,5.62,0,0,0-1.35-.07h0a2.85,2.85,0,0,0-2.27,1.4L22.67,8.18a35.25,35.25,0,0,0-2.29,4.56,28.37,28.37,0,0,0-1.49,4.77,26,26,0,0,0-.54,5.55v6A5.7,5.7,0,0,0,19,31.68a11.64,11.64,0,0,0,1.63,2.39,21.12,21.12,0,0,0,2.15,2.13q1.16,1,2.2,1.84,1.42,1.13,2.81,2.41a17.22,17.22,0,0,0,3,2.2,9.68,9.68,0,0,0,3.47,1.21C35,44,36.15,43.36,37.11,43.11Z"/><path d="M39.6,39.79a9.53,9.53,0,0,1-1.38-1q-.35-.24-.66-.47c-.05,0-.71-.3-.92-.1s-.47.45-.68.69a16.52,16.52,0,0,1-2.17,1.8,3.1,3.1,0,0,1-1.44.31,5.76,5.76,0,0,1-1.68-.24,1.84,1.84,0,0,1-1.16-1,5.7,5.7,0,0,1-.38-3,22.9,22.9,0,0,1,.83-4.06q.64-2.2,1.54-4.58.79-2.11,1.59-4.14a.57.57,0,0,1,.65-.35l.12,0a5.44,5.44,0,0,1,1.11.33.48.48,0,0,1,.21.43,17,17,0,0,1-.24,3q-.24,1.32-.59,2.58t-.8,2.55c-.24.7-.62,2.91-.31,3a1.85,1.85,0,0,1,.53.24,1.92,1.92,0,0,0,1.09.28,4,4,0,0,0,2.41-.66,5,5,0,0,0,1.46-1.75,11.46,11.46,0,0,0,.92-2.48l.73-2.86q.38-1.46.9-2.91a8.66,8.66,0,0,1,.81-1.67.6.6,0,0,1,1,0h0a1.75,1.75,0,0,1,.26,1,12.63,12.63,0,0,1-.19,2.29q-.19,1-.45,2t-.45,2a12.59,12.59,0,0,0-.19,2.29,7,7,0,0,0,.21,1.8q.21.8.5,1.56T43.39,38v0a1.26,1.26,0,0,1-1.16,1.75Z"/><path d="M63,25.77a1,1,0,0,1-.68.38,4,4,0,0,0-1.77.6,6.18,6.18,0,0,0-1.7,1.56,7.09,7.09,0,0,0-1.09,2.15,7.92,7.92,0,0,0-.38,2.39,2.22,2.22,0,0,0,.66,1.42,9.28,9.28,0,0,0,1.58,1.42,14.82,14.82,0,0,0,1.89,1.16q.43.22.8.37a.74.74,0,0,1,0,1.37h0a4.25,4.25,0,0,1-1.3.24,11.42,11.42,0,0,0-1.44.14,2,2,0,0,0-.81.33,1.08,1.08,0,0,1-1.31,0,3.39,3.39,0,0,1-.5-.52l-.9-1.16a4.74,4.74,0,0,0-.94-.92,2.55,2.55,0,0,0-1.51-.38,2.58,2.58,0,0,0-1.58.47,5.27,5.27,0,0,0-1.13,1.16q-.5.68-1,1.44a6.33,6.33,0,0,1-.56.7,1,1,0,0,1-1.43.09L46.27,38.8a8.05,8.05,0,0,1-1.16-1.11.85.85,0,0,1-.19-.69,2.87,2.87,0,0,1,.28-.73,2,2,0,0,0,.18-.55,1,1,0,0,1,.56-.74.89.89,0,0,0,.33-.24,1,1,0,0,1,.8-.33.79.79,0,0,1,.54.19A2.82,2.82,0,0,1,48,35a2.8,2.8,0,0,0,.4.45.79.79,0,0,0,.54.19,4,4,0,0,0,1.8-.47A7.21,7.21,0,0,0,52.48,34a7,7,0,0,0,1.3-1.65,3.69,3.69,0,0,0,.52-1.82,2.27,2.27,0,0,0-.47-1.32A6.92,6.92,0,0,0,52.7,28a7.81,7.81,0,0,0-1.42-1,5.77,5.77,0,0,0-.66-.3,1.07,1.07,0,0,1-.71-1V24.35a1.05,1.05,0,0,1,.21-.62q.21-.29.41-.6a8.59,8.59,0,0,1,.59-.83,3,3,0,0,1,.66-.61,1.64,1.64,0,0,1,.92-.24,1.56,1.56,0,0,1,1.44,1A11.76,11.76,0,0,1,55,24.86q.33,1.37.64,2.76v0a1,1,0,0,0,1.92.26L60.26,23a1,1,0,0,1,1-.53l2.13.22a1,1,0,0,1,.72,1.67Z"/><path d="M77.18,39.78a2.17,2.17,0,0,1-1.41-.51h0a7.38,7.38,0,0,0-.64-.47q-.35-.24-.66-.47h0a.84.84,0,0,0-1.09.06q-.27.26-.52.53a12.85,12.85,0,0,1-1,1,5.86,5.86,0,0,1-1.13.78,3.1,3.1,0,0,1-1.44.31,5.76,5.76,0,0,1-1.68-.24,1.84,1.84,0,0,1-1.16-1,5.7,5.7,0,0,1-.38-3,22.9,22.9,0,0,1,.83-4.06q.64-2.2,1.54-4.58.77-2.06,1.55-4a.73.73,0,0,1,.81-.44h0a6.23,6.23,0,0,1,.61.12,1.58,1.58,0,0,1,.5.21.48.48,0,0,1,.21.43,17,17,0,0,1-.24,3q-.24,1.32-.59,2.58t-.8,2.55q-.23.67-.46,1.42a1.62,1.62,0,0,0,.66,1.81h0a1.92,1.92,0,0,0,1.09.28,4,4,0,0,0,2.41-.66,5,5,0,0,0,1.46-1.75,11.46,11.46,0,0,0,.92-2.48l.73-2.86q.38-1.46.9-2.91A8.66,8.66,0,0,1,79,23.64a.6.6,0,0,1,1,0h0a1.75,1.75,0,0,1,.26,1,12.63,12.63,0,0,1-.19,2.29q-.19,1-.45,2t-.45,2A12.59,12.59,0,0,0,79,33.13a7,7,0,0,0,.21,1.8q.21.8.5,1.56T80.29,38h0a1.26,1.26,0,0,1-1.14,1.77Z"/><path d="M99.14,23.05a1.08,1.08,0,0,1,.51,1.3h0a4.36,4.36,0,0,1-.45.94,2.62,2.62,0,0,1-.78.78,2.76,2.76,0,0,1-1.39.38,1.27,1.27,0,0,1-1-.33A28.63,28.63,0,0,0,90.49,25c-.85,0-3.68.64-4,6.71a2.23,2.23,0,0,0,.78,1.68q.83.83,1.87,1.77a21.4,21.4,0,0,1,2,2.1A5.74,5.74,0,0,1,92.44,40a19.32,19.32,0,0,1,.33,3,5.81,5.81,0,0,1-.26,1.87,6,6,0,0,1-.71,1.42,17.09,17.09,0,0,0-1,1.65,6.45,6.45,0,0,1-2,2.36,8.62,8.62,0,0,1-3.1,1.44,11.86,11.86,0,0,1-3.95.26,14.63,14.63,0,0,1-4.49-1.18,7.28,7.28,0,0,1-1.65-.92.93.93,0,0,1-.43-.78,1.33,1.33,0,0,1,.5-.78,9.7,9.7,0,0,1,1-.74,1,1,0,0,1,.43-.17,2.71,2.71,0,0,1,1.8.28,7.61,7.61,0,0,1,1.44,1.09,16.12,16.12,0,0,0,1.28,1.11,1.77,1.77,0,0,0,1.56.28,5.88,5.88,0,0,0,2.27-1.37,26.63,26.63,0,0,0,3.43-3.9c2.32-2.91-2.2-7.43-2.69-8.34A14.33,14.33,0,0,1,85,33.69,8.86,8.86,0,0,1,84.64,31a5.75,5.75,0,0,1,.71-2.55q.8-1.46,1.46-2.72a8.1,8.1,0,0,1,1.65-2.17A7.25,7.25,0,0,1,90.95,22a11.6,11.6,0,0,1,3.9-.54,5.11,5.11,0,0,1,1.44.19,8.33,8.33,0,0,1,1.23.47q.59.28,1.18.64Z"/></svg>